<svg xmlns="http://www.w3.org/2000/svg" width="24" height="24" fill="none" id="vkontakte"><path fill="#000" fill-rule="evenodd" d="M1.5 5A3.5 3.5 0 0 1 5 1.5h14A3.5 3.5 0 0 1 22.5 5v14a3.5 3.5 0 0 1-3.5 3.5H5A3.5 3.5 0 0 1 1.5 19V5ZM5 2.5A2.5 2.5 0 0 0 2.5 5v14A2.5 2.5 0 0 0 5 21.5h14a2.5 2.5 0 0 0 2.5-2.5V5A2.5 2.5 0 0 0 19 2.5H5Z" clip-rule="evenodd"></path><path fill="#000" fill-rule="evenodd" d="M4.099 6.702A.5.5 0 0 1 4.5 6.5h3a.5.5 0 0 1 .485.379l1.027 4.106A2 2 0 0 0 10 12.26V8.581l-.474-1.423A.5.5 0 0 1 10 6.5h3.5a.5.5 0 0 1 .5.5v2.316c.33-.153.618-.395.826-.707l1.258-1.886A.5.5 0 0 1 16.5 6.5h3a.5.5 0 0 1 .429.757l-2.074 3.457a2.5 2.5 0 0 0 0 2.572l2.074 3.457a.5.5 0 0 1-.429.757h-3a.5.5 0 0 1-.416-.223l-1.258-1.886a1.999 1.999 0 0 0-.826-.707V17a.5.5 0 0 1-.5.5H9.732a3.5 3.5 0 0 1-3.352-2.494L4.02 7.144a.5.5 0 0 1 .078-.442Zm1.073.798 2.166 7.218A2.5 2.5 0 0 0 9.732 16.5H13v-2.477a.5.5 0 0 1 .568-.495 3 3 0 0 1 2.09 1.308l1.11 1.664h1.849l-1.62-2.7a3.5 3.5 0 0 1 0-3.6l1.62-2.7h-1.85l-1.109 1.664a3 3 0 0 1-2.09 1.309.5.5 0 0 1-.568-.496V7.5h-2.306l.28.842A.5.5 0 0 1 11 8.5v4.459a.5.5 0 0 1-.59.492 3 3 0 0 1-2.368-2.223L7.11 7.5H5.172Z" clip-rule="evenodd"></path></svg>